# xmcd
#
# Track frame offsets: 
#        150
#        19793
#        39580
#        55497
#        84235
#        105839
#        120832
#        136932
#        156629
#        172486
#        188373
#        203686
#        218728
#        237044
#        262969
#        293353
#
# Disc length: 4440 seconds
#
# Revision: 2
# Processed by: cddbd v1.5.2PL0 Copyright (c) Steve Scherf et al.
# Submitted via: ExactAudioCopy v0.99pb5
#
DISCID=cd115610
DTITLE=Jarabe De Palo - Grandes Exitos
DYEAR=2004
DGENRE=
TTITLE0=La Flaca
TTITLE1=Depende
TTITLE2=Grita
TTITLE3=Dos Días En La Vida
TTITLE4=El Lado Oscuro
TTITLE5=Completo Incompleto
TTITLE6=Quiero Ser Poeta
TTITLE7=Realidad O Sueño
TTITLE8=El Bosque De Palo
TTITLE9=Vuela
TTITLE10=Perro Apaleado
TTITLE11=Duerme Conmigo
TTITLE12=Pura Sangre
TTITLE13=De Vuelta Y Vuelta
TTITLE14=Agua
TTITLE15=--DATOS---
EXTD=
EXTT0=
EXTT1=
EXTT2=
EXTT3=
EXTT4=
EXTT5=
EXTT6=
EXTT7=
EXTT8=
EXTT9=
EXTT10=
EXTT11=
EXTT12=
EXTT13=
EXTT14=
EXTT15=
PLAYORDER=
